<?xml version="1.0" standalone="no"?>
<svg xmlns:xlink="http://www.w3.org/1999/xlink" id="wave" style="transform:rotate(180deg); transition: 0.3s" viewBox="0 0 1440 100" version="1.1" xmlns="http://www.w3.org/2000/svg"><defs><linearGradient id="sw-gradient-0" x1="0" x2="0" y1="1" y2="0"><stop stop-color="rgba(27, 20, 12, 1)" offset="0%"/><stop stop-color="rgba(27, 20, 12, 1)" offset="100%"/></linearGradient></defs><path style="transform:translate(0, 0px); opacity:1" fill="url(#sw-gradient-0)" d="M0,60L60,60C120,60,240,60,360,50C480,40,600,20,720,25C840,30,960,60,1080,61.7C1200,63,1320,37,1440,26.7C1560,17,1680,23,1800,25C1920,27,2040,23,2160,21.7C2280,20,2400,20,2520,28.3C2640,37,2760,53,2880,65C3000,77,3120,83,3240,76.7C3360,70,3480,50,3600,35C3720,20,3840,10,3960,20C4080,30,4200,60,4320,60C4440,60,4560,30,4680,15C4800,0,4920,0,5040,8.3C5160,17,5280,33,5400,36.7C5520,40,5640,30,5760,31.7C5880,33,6000,47,6120,55C6240,63,6360,67,6480,58.3C6600,50,6720,30,6840,20C6960,10,7080,10,7200,8.3C7320,7,7440,3,7560,5C7680,7,7800,13,7920,16.7C8040,20,8160,20,8280,30C8400,40,8520,60,8580,70L8640,80L8640,100L8580,100C8520,100,8400,100,8280,100C8160,100,8040,100,7920,100C7800,100,7680,100,7560,100C7440,100,7320,100,7200,100C7080,100,6960,100,6840,100C6720,100,6600,100,6480,100C6360,100,6240,100,6120,100C6000,100,5880,100,5760,100C5640,100,5520,100,5400,100C5280,100,5160,100,5040,100C4920,100,4800,100,4680,100C4560,100,4440,100,4320,100C4200,100,4080,100,3960,100C3840,100,3720,100,3600,100C3480,100,3360,100,3240,100C3120,100,3000,100,2880,100C2760,100,2640,100,2520,100C2400,100,2280,100,2160,100C2040,100,1920,100,1800,100C1680,100,1560,100,1440,100C1320,100,1200,100,1080,100C960,100,840,100,720,100C600,100,480,100,360,100C240,100,120,100,60,100L0,100Z"/></svg>